# Blender v2.91.0 OBJ File: ''
# www.blender.org
mtllib cone.mtl
o Cylinder
v 0.000000 -1.000000 -0.032849
v 0.000000 1.000000 -1.000000
v 0.006409 -1.000000 -0.032218
v 0.195090 1.000000 -0.980785
v 0.012571 -1.000000 -0.030348
v 0.382683 1.000000 -0.923880
v 0.018250 -1.000000 -0.027313
v 0.555570 1.000000 -0.831470
v 0.023228 -1.000000 -0.023228
v 0.707107 1.000000 -0.707107
v 0.027313 -1.000000 -0.018250
v 0.831470 1.000000 -0.555570
v 0.030348 -1.000000 -0.012571
v 0.923880 1.000000 -0.382683
v 0.032217 -1.000000 -0.006409
v 0.980785 1.000000 -0.195090
v 0.032849 -1.000000 -0.000000
v 1.000000 1.000000 -0.000000
v 0.032217 -1.000000 0.006408
v 0.980785 1.000000 0.195090
v 0.030348 -1.000000 0.012570
v 0.923880 1.000000 0.382683
v 0.027313 -1.000000 0.018249
v 0.831470 1.000000 0.555570
v 0.023228 -1.000000 0.023227
v 0.707107 1.000000 0.707107
v 0.018250 -1.000000 0.027312
v 0.555570 1.000000 0.831470
v 0.012571 -1.000000 0.030348
v 0.382683 1.000000 0.923880
v 0.006409 -1.000000 0.032217
v 0.195090 1.000000 0.980785
v 0.000000 -1.000000 0.032848
v -0.000000 1.000000 1.000000
v -0.006408 -1.000000 0.032217
v -0.195091 1.000000 0.980785
v -0.012570 -1.000000 0.030348
v -0.382684 1.000000 0.923879
v -0.018250 -1.000000 0.027312
v -0.555571 1.000000 0.831469
v -0.023227 -1.000000 0.023227
v -0.707107 1.000000 0.707106
v -0.027312 -1.000000 0.018249
v -0.831470 1.000000 0.555570
v -0.030348 -1.000000 0.012570
v -0.923880 1.000000 0.382683
v -0.032217 -1.000000 0.006408
v -0.980785 1.000000 0.195089
v -0.032848 -1.000000 -0.000000
v -1.000000 1.000000 -0.000001
v -0.032217 -1.000000 -0.006409
v -0.980785 1.000000 -0.195091
v -0.030348 -1.000000 -0.012571
v -0.923879 1.000000 -0.382684
v -0.027312 -1.000000 -0.018250
v -0.831469 1.000000 -0.555571
v -0.023227 -1.000000 -0.023228
v -0.707106 1.000000 -0.707108
v -0.018250 -1.000000 -0.027313
v -0.555569 1.000000 -0.831470
v -0.012570 -1.000000 -0.030348
v -0.382682 1.000000 -0.923880
v -0.006408 -1.000000 -0.032218
v -0.195089 1.000000 -0.980786
vt 0.611964 1.005000
vt 0.111964 1.005000
vt 0.111964 0.973750
vt 0.611964 0.973750
vt 0.111964 0.942500
vt 0.611964 0.942500
vt 0.111964 0.911250
vt 0.611964 0.911250
vt 0.111964 0.880000
vt 0.611964 0.880000
vt 0.111964 0.848750
vt 0.611964 0.848750
vt 0.111964 0.817500
vt 0.611964 0.817500
vt 0.111964 0.786250
vt 0.611964 0.786250
vt 0.111964 0.755000
vt 0.611964 0.755000
vt 0.111964 0.723750
vt 0.611964 0.723750
vt 0.111964 0.692500
vt 0.611964 0.692500
vt 0.111964 0.661250
vt 0.611964 0.661250
vt 0.111964 0.630000
vt 0.611964 0.630000
vt 0.111964 0.598750
vt 0.611964 0.598750
vt 0.111964 0.567500
vt 0.611964 0.567500
vt 0.111964 0.536250
vt 0.611964 0.536250
vt 0.111964 0.505000
vt 0.611964 0.505000
vt 0.111964 0.473750
vt 0.611964 0.473750
vt 0.111964 0.442500
vt 0.611964 0.442500
vt 0.111964 0.411250
vt 0.611964 0.411250
vt 0.111964 0.380000
vt 0.611964 0.380000
vt 0.111964 0.348750
vt 0.611964 0.348750
vt 0.111964 0.317500
vt 0.611964 0.317500
vt 0.111964 0.286250
vt 0.611964 0.286250
vt 0.111964 0.255000
vt 0.611964 0.255000
vt 0.111964 0.223750
vt 0.611964 0.223750
vt 0.111964 0.192500
vt 0.611964 0.192500
vt 0.111964 0.161250
vt 0.611964 0.161250
vt 0.111964 0.130000
vt 0.611964 0.130000
vt 0.111964 0.098750
vt 0.611964 0.098750
vt 0.111964 0.067500
vt 0.611964 0.067500
vt 0.111964 0.036250
vt 0.611964 0.036250
vt 0.111964 0.005000
vt 0.611964 0.005000
vt 0.003865 0.547988
vt 0.004716 0.556620
vt 0.007233 0.564920
vt 0.011322 0.572569
vt 0.016825 0.579274
vt 0.023529 0.584777
vt 0.031179 0.588865
vt 0.039479 0.591383
vt 0.048111 0.592233
vt 0.056742 0.591383
vt 0.065042 0.588865
vt 0.072692 0.584777
vt 0.079397 0.579274
vt 0.084899 0.572569
vt 0.088988 0.564920
vt 0.091506 0.556620
vt 0.092356 0.547988
vt 0.091506 0.539356
vt 0.088988 0.531056
vt 0.084899 0.523407
vt 0.079397 0.516702
vt 0.072692 0.511200
vt 0.065042 0.507111
vt 0.056742 0.504593
vt 0.048111 0.503743
vt 0.039479 0.504593
vt 0.031179 0.507111
vt 0.023529 0.511200
vt 0.016825 0.516702
vt 0.011322 0.523407
vt 0.007233 0.531056
vt 0.004716 0.539357
vn 0.0883 -0.4336 -0.8967
vn 0.2616 -0.4336 -0.8623
vn 0.4248 -0.4336 -0.7947
vn 0.5716 -0.4336 -0.6965
vn 0.6965 -0.4336 -0.5716
vn 0.7947 -0.4336 -0.4248
vn 0.8623 -0.4336 -0.2616
vn 0.8967 -0.4336 -0.0883
vn 0.8967 -0.4336 0.0883
vn 0.8623 -0.4336 0.2616
vn 0.7947 -0.4336 0.4248
vn 0.6965 -0.4336 0.5716
vn 0.5716 -0.4336 0.6965
vn 0.4248 -0.4336 0.7947
vn 0.2616 -0.4336 0.8623
vn 0.0883 -0.4336 0.8967
vn -0.0883 -0.4336 0.8967
vn -0.2616 -0.4336 0.8623
vn -0.4248 -0.4336 0.7947
vn -0.5716 -0.4336 0.6965
vn -0.6965 -0.4336 0.5716
vn -0.7947 -0.4336 0.4248
vn -0.8623 -0.4336 0.2616
vn -0.8967 -0.4336 0.0883
vn -0.8967 -0.4336 -0.0883
vn -0.8623 -0.4336 -0.2616
vn -0.7947 -0.4336 -0.4248
vn -0.6965 -0.4336 -0.5716
vn -0.5716 -0.4336 -0.6965
vn -0.4248 -0.4336 -0.7947
vn -0.2616 -0.4336 -0.8623
vn -0.0883 -0.4336 -0.8967
vn 0.0000 -1.0000 0.0000
usemtl Material.001
s off
f 1/1/1 2/2/1 4/3/1 3/4/1
f 3/4/2 4/3/2 6/5/2 5/6/2
f 5/6/3 6/5/3 8/7/3 7/8/3
f 7/8/4 8/7/4 10/9/4 9/10/4
f 9/10/5 10/9/5 12/11/5 11/12/5
f 11/12/6 12/11/6 14/13/6 13/14/6
f 13/14/7 14/13/7 16/15/7 15/16/7
f 15/16/8 16/15/8 18/17/8 17/18/8
f 17/18/9 18/17/9 20/19/9 19/20/9
f 19/20/10 20/19/10 22/21/10 21/22/10
f 21/22/11 22/21/11 24/23/11 23/24/11
f 23/24/12 24/23/12 26/25/12 25/26/12
f 25/26/13 26/25/13 28/27/13 27/28/13
f 27/28/14 28/27/14 30/29/14 29/30/14
f 29/30/15 30/29/15 32/31/15 31/32/15
f 31/32/16 32/31/16 34/33/16 33/34/16
f 33/34/17 34/33/17 36/35/17 35/36/17
f 35/36/18 36/35/18 38/37/18 37/38/18
f 37/38/19 38/37/19 40/39/19 39/40/19
f 39/40/20 40/39/20 42/41/20 41/42/20
f 41/42/21 42/41/21 44/43/21 43/44/21
f 43/44/22 44/43/22 46/45/22 45/46/22
f 45/46/23 46/45/23 48/47/23 47/48/23
f 47/48/24 48/47/24 50/49/24 49/50/24
f 49/50/25 50/49/25 52/51/25 51/52/25
f 51/52/26 52/51/26 54/53/26 53/54/26
f 53/54/27 54/53/27 56/55/27 55/56/27
f 55/56/28 56/55/28 58/57/28 57/58/28
f 57/58/29 58/57/29 60/59/29 59/60/29
f 59/60/30 60/59/30 62/61/30 61/62/30
f 61/62/31 62/61/31 64/63/31 63/64/31
f 63/64/32 64/63/32 2/65/32 1/66/32
f 1/67/33 3/68/33 5/69/33 7/70/33 9/71/33 11/72/33 13/73/33 15/74/33 17/75/33 19/76/33 21/77/33 23/78/33 25/79/33 27/80/33 29/81/33 31/82/33 33/83/33 35/84/33 37/85/33 39/86/33 41/87/33 43/88/33 45/89/33 47/90/33 49/91/33 51/92/33 53/93/33 55/94/33 57/95/33 59/96/33 61/97/33 63/98/33
